<?xml version="1.0" standalone="no"?><svg xmlns="http://www.w3.org/2000/svg" viewBox="0 0 1440 320"><path fill="#5000ca" fill-opacity="1" d="M0,96L15,122.7C30,149,60,203,90,213.3C120,224,150,192,180,165.3C210,139,240,117,270,96C300,75,330,53,360,48C390,43,420,53,450,69.3C480,85,510,107,540,122.7C570,139,600,149,630,165.3C660,181,690,203,720,197.3C750,192,780,160,810,133.3C840,107,870,85,900,74.7C930,64,960,64,990,85.3C1020,107,1050,149,1080,170.7C1110,192,1140,192,1170,170.7C1200,149,1230,107,1260,117.3C1290,128,1320,192,1350,202.7C1380,213,1410,171,1425,149.3L1440,128L1440,320L1425,320C1410,320,1380,320,1350,320C1320,320,1290,320,1260,320C1230,320,1200,320,1170,320C1140,320,1110,320,1080,320C1050,320,1020,320,990,320C960,320,930,320,900,320C870,320,840,320,810,320C780,320,750,320,720,320C690,320,660,320,630,320C600,320,570,320,540,320C510,320,480,320,450,320C420,320,390,320,360,320C330,320,300,320,270,320C240,320,210,320,180,320C150,320,120,320,90,320C60,320,30,320,15,320L0,320Z"></path></svg>